<svg
   style="width: var(--bs-body-font-size);"
   class="ms-auto"
   viewBox="0 0 20 20">
  <path
     d="m 9.7447157,4.0097656 c -0.017187,1.007e-4 -0.033811,9.965e-4 -0.050781,0.00195 -0.03322,-8.108e-4 -0.066454,-0.0025 -0.09961,0 -0.2086986,0.033199 -0.4015168,0.1316588 -0.5507812,0.28125 l -3.0273438,3.0058593 c -0.3904227,0.3905062 -0.3904227,1.0235563 0,1.4140625 0.3905064,0.3904228 1.0235562,0.3904228 1.4140626,0 l 1.3203124,-1.2988281 v 5.1816405 l -1.3203124,-1.298828 c -0.3905064,-0.390423 -1.0235562,-0.390423 -1.4140626,0 -0.3904227,0.390506 -0.3904227,1.023557 0,1.414063 l 3.0273438,3.005859 c 0.1492644,0.149591 0.3420826,0.24805 0.5507812,0.28125 0.039007,0.003 0.078123,0.0017 0.1171878,0 0.011147,4.33e-4 0.021964,0.0019 0.033203,0.002 0.011238,-6.6e-5 0.022056,-0.0015 0.033203,-0.002 0.039064,0.0017 0.07818,0.003 0.117187,0 0.2086993,-0.0332 0.4015183,-0.131659 0.5507823,-0.28125 l 3.027344,-3.005859 c 0.390422,-0.390506 0.390422,-1.023557 0,-1.414063 -0.390507,-0.390423 -1.023556,-0.390423 -1.414063,0 l -1.320313,1.298828 v -5.1816405 l 1.320313,1.2988281 c 0.390507,0.3904228 1.023556,0.3904228 1.414063,0 0.390422,-0.3905062 0.390422,-1.0235563 0,-1.4140625 l -3.027344,-3.0058593 c -0.149264,-0.1495912 -0.342083,-0.2480512 -0.5507823,-0.28125 -0.033155,-0.0025 -0.06639,-8.108e-4 -0.099609,0 -0.01697,-9.566e-4 -0.033594,-0.00185 -0.050781,-0.00195 z" />
</svg>
