<svg
   style="width: var(--bs-body-font-size);"
   class="ms-auto"
   viewBox="0 0 20 20">
  <path
     d="M 9.9257812 4.0117188 C 9.7170823 4.0449177 9.5242645 4.1433775 9.375 4.2929688 L 6.3476562 7.2988281 C 5.9572331 7.6893347 5.9572331 8.322384 6.3476562 8.7128906 C 6.7381629 9.1033138 7.3712121 9.1033138 7.7617188 8.7128906 L 9.0820312 7.4140625 L 9.0820312 15 C 9.0820219 15.550004 9.5261771 15.996778 10.076172 16 C 10.626166 15.996778 11.070321 15.550004 11.070312 15 L 11.070312 7.4140625 L 12.390625 8.7128906 C 12.781132 9.1033138 13.414181 9.1033138 13.804688 8.7128906 C 14.195111 8.322384 14.195111 7.6893347 13.804688 7.2988281 L 10.777344 4.2929688 C 10.62808 4.1433775 10.435261 4.0449177 10.226562 4.0117188 C 10.176504 4.0079488 10.126232 4.0079488 10.076172 4.0117188 C 10.026112 4.0079488 9.9758405 4.0079488 9.9257812 4.0117188 z " />
</svg>
