<svg
   style="width: var(--bs-body-font-size);"
   class="ms-auto"
   viewBox="0 0 20 20">
  <path
     d="m 9.9257812,15.997173 c -0.2086989,-0.0332 -0.4015167,-0.131659 -0.5507812,-0.28125 l -3.0273438,-3.00586 c -0.3904231,-0.390506 -0.3904231,-1.023556 0,-1.414062 0.3905067,-0.390423 1.0235559,-0.390423 1.4140626,0 l 1.3203124,1.298828 v -7.5859377 c -9.3e-6,-0.550004 0.4441459,-0.996778 0.9941408,-1 0.549994,0.00322 0.994149,0.449996 0.99414,1 v 7.5859377 l 1.320313,-1.298828 c 0.390507,-0.390423 1.023556,-0.390423 1.414063,0 0.390423,0.390506 0.390423,1.023556 0,1.414062 l -3.027344,3.00586 c -0.149264,0.149591 -0.342083,0.248051 -0.550782,0.28125 -0.05006,0.0038 -0.10033,0.0038 -0.15039,0 -0.05006,0.0038 -0.1003315,0.0038 -0.1503908,0 z" />
</svg>
